<?xml version="1.0" encoding="utf-8"?>
<!-- Generator: Adobe Illustrator 21.0.0, SVG Export Plug-In . SVG Version: 6.00 Build 0)  -->
<svg version="1.1" id="Layer_1" xmlns="http://www.w3.org/2000/svg" xmlns:xlink="http://www.w3.org/1999/xlink" x="0px" y="0px"
	 viewBox="0 0 311 274" style="enable-background:new 0 0 311 274;" xml:space="preserve">
<style type="text/css">
	.st0{opacity:0.2;}
	.st1{fill:#2E1099;}
	.st2{fill:#461FB0;}
	.st3{fill:#5625BF;}
	.st4{opacity:0.4;fill:#5B4CF5;enable-background:new    ;}
	.st5{opacity:0.4;}
	.st6{fill:#311497;}
	.st7{opacity:0.6;fill:#311497;enable-background:new    ;}
	.st8{opacity:0.1;fill:#311497;enable-background:new    ;}
	.st9{opacity:0.5;fill:#5B4CF5;enable-background:new    ;}
	.st10{opacity:0.8;fill:#5B4CF5;enable-background:new    ;}
	.st11{fill:#51B8ED;}
	.st12{opacity:0.3;fill:#5B4CF5;enable-background:new    ;}
	.st13{fill:#DADBDE;}
	.st14{fill:#EDEDED;}
	.st15{fill:#C0C3CA;}
	.st16{fill:#5B4CF5;}
	.st17{fill:#2B201A;}
	.st18{fill:#4D6982;}
	.st19{fill:#5C748F;}
	.st20{fill:#E8BEAB;}
	.st21{fill:#FFFFFF;}
	.st22{fill:#FDD4C2;}
	.st23{fill:#101923;}
	.st24{opacity:0.1;fill:#01070C;enable-background:new    ;}
	.st25{fill:#071B33;}
	.st26{fill:#020E1D;}
	.st27{fill:#011F35;}
	.st28{fill:#041328;}
	.st29{fill:#052E4C;}
	.st30{fill:#07334F;}
	.st31{fill:#104866;}
	.st32{fill:#9AC5E0;}
	.st33{fill:#C4DEF5;}
	.st34{fill:#D7EFFA;}
	.st35{fill:#E6E6E6;}
	.st36{fill:#1D2154;}
	.st37{fill:#252B60;}
	.st38{fill:#151B3A;}
	.st39{fill:#F0F0F2;}
	.st40{fill:#0C233A;}
	.st41{fill:#DDDEE3;}
	.st42{fill:#E4E6EB;}
	.st43{fill:#CBCCCF;}
	.st44{fill:#F7F7F7;}
	.st45{fill:#EBBAA9;}
	.st46{fill:#9C284F;}
	.st47{fill:#A63360;}
	.st48{fill:#466FBF;}
	.st49{fill:#5E7CDB;}
</style>
<g>
	<g>
		<g class="st0">
			<path class="st1" d="M213.4,221.8c-2.1,1.2-5.4,1.2-7.5,0L79,147.8c-2.1-1.2-2-3.1,0-4.3l85.6-49.3c2.1-1.2,5.4-1.2,7.5,0
				l126.9,73.9c2.1,1.2,2,3.1,0,4.3L213.4,221.8z"/>
		</g>
		<g>
			<path class="st2" d="M215.2,215.2c-2.1,1.2-5.4,1.2-7.5,0l-139.1-81c-2.1-1.2-2-3.1,0-4.3l94-54.1c2.1-1.2,5.4-1.2,7.5,0
				l139.1,81c2.1,1.2,2,3.1,0,4.3L215.2,215.2z"/>
		</g>
		<g>
			<path class="st3" d="M215.2,213.3c-2.1,1.2-5.4,1.2-7.5,0l-139.1-81c-2.1-1.2-2-3.1,0-4.3l94-54.1c2.1-1.2,5.4-1.2,7.5,0
				l139.1,81c2.1,1.2,2,3.1,0,4.3L215.2,213.3z"/>
		</g>
		<polygon class="st4" points="282.3,159.4 282.3,70.3 161.5,0.5 161.5,89.6 		"/>
		<g class="st5">
			<path class="st6" d="M245.2,181.2c-2.1,1.2-5.4,1.2-7.5,0l-114.5-66.7c-2.1-1.2-2-3.1,0-4.3l39.7-23.1c2.1-1.2,5.4-1.2,7.5,0
				l114.5,66.7c2.1,1.2,2,3.1,0,4.3L245.2,181.2z"/>
		</g>
		<polygon class="st7" points="284,158.7 280.6,160.6 158.2,89.8 161.6,87.8 		"/>
		<g class="st5">
			<path class="st6" d="M187.9,145.4c-2.1,1.2-5.4,1.2-7.5,0l-43-25c-2.1-1.2-2.1-3.1,0-4.3l21.9-12.8c2.1-1.2,5.4-1.2,7.5,0l43,25
				c2.1,1.2,2.1,3.1,0,4.3L187.9,145.4z"/>
		</g>
		<polygon class="st8" points="233.6,94.3 233.6,52.2 176.4,19.4 176.4,61.4 		"/>
		<polygon class="st9" points="230.5,95.8 230.5,53.8 173.2,20.9 173.2,62.9 		"/>
		<path class="st4" d="M183.4,144l16.5-9.8v-30.7l-16.4,10C183.5,113.5,176.1,125.1,183.4,144z"/>
		<path class="st9" d="M183.7,144c0,0-6.9-17,0-30.5l-43.2-25.1c0,0-7.1,14.2,0,30.7L183.7,144z"/>
		<polygon class="st10" points="140.4,88.4 157.2,78.9 200.1,103.5 183.7,113.5 		"/>
		<g>
			<g class="st5">
				<polygon class="st11" points="282.3,159.7 281.9,159.7 281.9,70.4 161.3,0.6 161.4,0.3 282.3,70.1 				"/>
			</g>
		</g>
		<path class="st12" d="M138.6,101.6l40,23.1c0,0-0.3-6,2.6-10.2l-40.6-23.4C140.7,91.1,138.4,95.5,138.6,101.6z"/>
		<polygon class="st13" points="176.7,103.3 183.1,99.8 191.6,104.7 185.4,108.3 		"/>
		<g>
			<polygon class="st7" points="172.9,104 185,111.2 193,106.6 180.8,99.6 			"/>
			<polygon class="st13" points="174.2,103 182.1,98.6 192.8,104.7 185,109.2 			"/>
			<polygon class="st14" points="183,102.2 185.1,101 188,102.7 185.9,103.9 			"/>
			<polygon class="st15" points="185,109.2 183.7,101 172.9,93.9 174.2,103 			"/>
		</g>
		<path class="st16" d="M144.9,173.7"/>
	</g>
	<g>
		<path class="st17" d="M236.3,144.4c-0.5,2.1-0.4,1.5-0.9,2.1c-0.5,0.6-1.3,0.7-2.3,2.8c-1,2.1-6.8,0.3-4.7-1.8
			c2.1-2.1,4.8-4.7,4.8-4.7L236.3,144.4z"/>
		<path class="st17" d="M225.8,138.4c-0.2,2.1-0.2,1.5-0.6,2.2c-0.4,0.7-1.2,0.9-1.9,3.1c-0.7,2.2-6.7,1.1-4.9-1.2
			c1.8-2.4,4.2-5.2,4.2-5.2L225.8,138.4z"/>
		<g>
			<path class="st18" d="M222.8,103.7c0,0-2.2,6.2-2.2,12.1c0,5.9,3.1,19.9,1.5,21.6c0,0,0.7,2,4.2,1.3c0,0,1.1-13.4,1.3-19.1
				c0.2-5.7,0.2-5.7,0.2-5.7l-0.3-6.4L222.8,103.7z"/>
			<path class="st19" d="M234,105.9c3.2,7.3,0.2,10.8,1.8,19.1c1.5,8.3,2.6,16.6,1,19.1c0,0-3.2,1.5-4.2-1.2c0,0,1.3-7.3-1.4-14.1
				c-2.7-6.9-5.8-12.4-5.3-21.7L234,105.9z"/>
			<path class="st20" d="M227.8,82.7c6.4,0.7,6.5,0.8,6.9,1.4c0.4,0.6-7.8,9.1-7.8,9.1L227.8,82.7z"/>
			<path class="st14" d="M236.5,89.2c-0.1-1.1,0.1-1.9,0.2-2.4c-1.4-1.3-1.8-2.7-2.5-3.1c-0.9-0.4-6.4,4.2-6.4,4.2l0.8-5.1
				c0,0-3.5-0.7-3.8-0.2c-4.8,6.5-2.2,22.2-2.2,22.2s3,5.2,11.6,1.9c0,0,0.3-8.5,4.4-12C237.5,92.8,236.6,90.6,236.5,89.2z"/>
			<path class="st14" d="M228,82.7c-4.9-1.2-12.5,1.8-12.5,1.8l-5.7-7.9c0,0-0.6,1.6-2.6,1.3c0,0,0.7,1.3,3.3,6.6
				c2.6,5.3,1.8,4.4,5.3,4.2c3.5-0.2,6.7-0.4,6.6-0.1C222.4,89,228,82.7,228,82.7z"/>
			<path class="st21" d="M227.2,82.2c-1.1,1.6-1.1,1.6-1.1,1.6s1.2-0.2,1.7,0.4c0.5,0.6,1.1-2.2,1.1-2.2L227.2,82.2z"/>
			<path class="st22" d="M233.6,81.3c-3.3,3.9-6.8,3.8-6.6,0.6c0.2-3.2-0.2-6.2,0.8-6.6l5.8-0.2l2.5,2.8c0,0,0.5,2.2-1,3.3
				C233.7,82,233.6,81.3,233.6,81.3z"/>
			<path class="st23" d="M232.1,76.1c-5.2,0.3-6.1-1.9-3.6-3.3c2.5-1.4,8.7-0.8,8.6,3.6c-0.1,4.3-2.1,5-2.1,5s1.3-1.5,0.5-2.3
				c-0.8-0.7-1.6,1.8-2.1,1.7c-0.5-0.1,0.6-0.8,0-1.9c-0.6-1.1-2-0.9-1.2-2.4c0,0,0.4-0.5,0.2-0.5C232.1,76.1,232.1,76.1,232.1,76.1
				z"/>
			<path class="st20" d="M234.2,83.6c-1.1-1-0.3-2-0.3-2s0.5,0.2,1.3-0.5c0.7-0.7,0.8-2.6,0-2.4s-1.2,1.5-1.6,2.6
				c-0.5,1.1-2.7,2.4-3.1,2.6c-0.4,0.2,2.7-0.1,2.7-0.1L234.2,83.6z"/>
			<path class="st21" d="M229.4,86.7l-0.1-1.2c0,0,5.2-1.4,4.8-2c-0.4-0.6-0.6-0.7,0.4-0.4c1,0.3,1.8,1.6,0,2.4s-5.1,1.8-5.1,1.8
				L229.4,86.7z"/>
			<path class="st21" d="M231.3,86.7c3.6-1.6,1.9-1.6,0-1.5c-1.7,1.2-3.4,2.7-3.4,2.7c-2.3,5.2-1.7,19.6-1.7,19.6l0,0
				c0.4,0.1,0.9,0.2,1.4,0.3C227.2,104.8,226,89,231.3,86.7z"/>
			<path class="st22" d="M207.2,77.8c0,0,3.3,0.3,2.5-1.6c-0.8-1.9-2.7-4.9-4.9-6.1c0,0-0.5,0.7,0.2,1.3c0.7,0.6,1.8,2.1,1.8,2.1
				s-2.9,1.3-2.2,2.4C205.4,76.9,207.2,77.8,207.2,77.8z"/>
			<path class="st24" d="M234.4,106.9l-1,0.1c0.8-10.7,0.2-11.3,0.2-11.3s-2.2,8.7-0.5,18.1c1.7,9,2.1,8.2,2.6,11.2
				C234.3,117.1,236.9,113.6,234.4,106.9z"/>
			<path class="st22" d="M235.2,110.7l-0.2,2.4c0,0-2.5-2-2.1-2.8l0.4-0.4L235.2,110.7z"/>
			<path class="st14" d="M236.4,86.4c3.9,3.7,4.8,6.1,3.7,10.5c-1.1,4.4-4.5,13.7-4.5,13.7s-1.5,0.5-2.4-0.9l1.4-13.4L236.4,86.4z"
				/>
		</g>
	</g>
	<g>
		<path class="st25" d="M39.1,191.3c-0.2,1.7,0.7,1.6,3.5,1.3v-0.3c0,0,8.4-1.1,7.3-3.5c-1.2-2.6-9.7,0.7-9.7,0.7L39.1,191.3z"/>
		<path class="st25" d="M30.8,185c-0.2,1.7,0.4,1.6,3.6,1.3v-0.3c0,0,8.3-1.1,7.2-3.5c-1.2-2.6-9.7,0.7-9.7,0.7L30.8,185z"/>
		<g>
			<path class="st26" d="M32.7,153.9c0,0-0.3,11-1.6,14.6c-1.3,3.5-1.3,16.4-1.3,16.4s3.5,2,4.8-0.6c1.3-2.5-0.6-5,0.8-10.6
				c1.4-5.6,5.5-17.3,5.5-17.3L32.7,153.9z"/>
			<path class="st27" d="M30.6,129.7c-1.2,9.6,1.8,21.8,1.8,21.8l5.5-3.3L30.6,129.7z"/>
			<path class="st28" d="M38.8,155.7c0,0,2.7,18.7-0.8,34.9c0,0,3.3,2.7,6.1,0.1c0,0,1.1-14.9,2.8-24.1c1.7-9.2,0.7-10.9,0.7-10.9
				H38.8z"/>
			<path class="st29" d="M48.7,156.7c-4,0.9-17.8-0.4-18.2-3.7c-0.3-3.2,3.1-8.1,2.4-11.7c-0.7-3.6-4-13.3-1.1-14.5
				c2.9-1.2,6.8,0.2,10.5,1.8s5.9,5.8,5.5,10.1s-0.5,6.8,0.3,10C49,152,51.2,156.1,48.7,156.7z"/>
			<path class="st30" d="M47.8,136.8c-0.6-11-7.8-3.3-6,0c1.8,3.3,2.8,23,2.8,23s1.6,1.8,3.1-0.8C49.3,156.4,47.8,136.8,47.8,136.8z
				"/>
			<path class="st22" d="M41.7,128.5c-0.3-1.6-0.5-2.4,0-2.9c0.5-0.4,0.8,0.1,1.2-1.4c0.4-1.6,0.9-1.3,0.5-3.3c-0.4-2-0.8-2.4-1-2.4
				s-3.8,0.7-3.8,0.7s-3.2,4.8-2.7,6.3c0.5,1.5,0.3,1.7-0.6,1.9c0,0,0.5,1.1,1.9,1.4C40.2,129.2,41.7,128.5,41.7,128.5z"/>
			<path class="st23" d="M42.9,123c-1.7-2.7-1.8-0.7-1,1.3c0,0-0.1,3.3-4.1,2.7c-4-0.6-3.3-6.2-3.4-7.6s3.8-3.4,5.3-4.6
				c1.6-1.2,4.5,0.2,4.2,2.2c-0.3,2-1.1,3.4-0.8,4.8C43.3,123.3,42.9,123,42.9,123z"/>
		</g>
		<path class="st31" d="M42.9,128C42.9,128,42.9,128,42.9,128c-0.4,0-0.8,0.1-1.2,0.1c-3.6,0.2-5.2-0.1-5.5-1.6
			c-0.6,0.5-1.6,0.3-1.6,0.9c0.1,1.6,2.6,2.7,6.3,2.4c1.1-0.1,1.9-0.2,2.7-0.5C43.6,129.3,43.5,128.3,42.9,128z"/>
	</g>
	<g>
		<path class="st25" d="M65.8,252.4c-0.2,1.7,0.4,1.6,3.5,1.3v-0.3c0,0,8.3-1.1,7.3-3.5c-1.2-2.6-9.7,0.7-9.7,0.7L65.8,252.4z"/>
		<path class="st25" d="M57.2,246.1c-0.2,1.7,0.7,1.6,3.4,1.3V247c0,0,8.4-1.1,7.4-3.5c-1.2-2.6-9.7,0.7-9.7,0.7L57.2,246.1z"/>
		<g>
			<path class="st26" d="M58.7,211.9c0,0,1,6.6-1,15.8c-0.9,3.9-1.3,17.8-1.3,17.8s3.5,2.1,4.8-0.6c1.3-2.8-0.6-5.5,0.8-11.5
				c1.4-6,5.5-18.7,5.5-18.7L58.7,211.9z"/>
			<path class="st32" d="M57.2,190.8c-1.2,9.6,3,22.4,3,22.4l4.3-3.9L57.2,190.8z"/>
			<path class="st28" d="M65.3,213.8c0,0,2.7,20.2-0.8,37.8c0,0,3.3,2.9,6.1,0.1c0,0,1.1-16.1,2.8-26.1c1.7-10,0.7-11.8,0.7-11.8
				L65.3,213.8L65.3,213.8z"/>
			<path class="st33" d="M74.3,215.7c-3.5-2.2-13.3,0.2-15.1-2.5c-2-2.9,1-7.1,0.2-10.7c-0.7-3.6-4-13.3-1.1-14.5
				c2.9-1.2,6.8,0.2,10.5,1.8s5.9,5.8,5.5,10.1c-0.4,4.3-0.5,6.8,0.3,10C75.5,213.1,74.8,215.9,74.3,215.7z"/>
			<path class="st22" d="M71.5,220v1.7c0,0,1.7-0.2,2.2-1.4L71.5,220z"/>
			<path class="st34" d="M74.4,197.9c-0.6-11-7.8-3.3-6,0c1.8,3.3,2.4,21.9,2.4,21.9s2.4,0.9,3.5,0.3
				C75.4,219.5,74.4,197.9,74.4,197.9z"/>
			<path class="st22" d="M68.3,189.6c-0.3-1.6-0.5-2.4,0-2.9c0.5-0.4,0.8,0.1,1.2-1.4c0.4-1.6,0.9-1.3,0.5-3.3s-0.8-2.4-1-2.4
				c-0.3,0-3.8,0.7-3.8,0.7s-3.2,4.8-2.7,6.3c0.5,1.5,0.3,1.7-0.6,1.9c0,0,0.5,1.1,1.9,1.4C66.8,190.3,68.3,189.6,68.3,189.6z"/>
			<path class="st23" d="M69.4,184.1c-1.7-2.7-1.8-0.7-1,1.3c0,0-0.1,3.3-4.1,2.7c-4-0.6-3.3-6.2-3.4-7.6c-0.1-1.5,3.8-3.4,5.3-4.6
				c1.6-1.2,4.5,0.2,4.2,2.2s-1.1,3.4-0.8,4.8C69.8,184.4,69.4,184.1,69.4,184.1z"/>
		</g>
		<path class="st34" d="M68.6,189.5C68.6,189.5,68.6,189.5,68.6,189.5c-0.4,0-0.8,0.1-1.2,0.1c-3.6,0.2-5.2-0.1-5.5-1.6
			c-0.6,0.5-1.6,0.3-1.6,0.9c0.1,1.6,2.6,2.7,6.3,2.4c1.1-0.1,1.9-0.2,2.7-0.5C69.3,190.8,69.2,189.8,68.6,189.5z"/>
	</g>
	<g>
		<polygon class="st35" points="110.8,217 121.3,222.9 133.6,215.4 123.3,209.7 		"/>
		<path class="st25" d="M129.8,272.2c0.2,1.7-0.1,1.6-3.3,1.3v-0.3c0,0-8.6-1.1-7.5-3.5c1.2-2.6,9.7,0.7,9.7,0.7L129.8,272.2z"/>
		<path class="st25" d="M138.2,265.9c0.2,1.7-0.2,1.6-3.4,1.3v-0.3c0,0-8.5-1.1-7.4-3.5c1.2-2.6,9.7,0.7,9.7,0.7L138.2,265.9z"/>
		<path class="st26" d="M136.6,231.7c0,0-1,6.6,1,15.8c0.9,3.9,1.3,17.8,1.3,17.8s-3.5,2.1-4.8-0.6c-1.3-2.8,0.6-5.5-0.8-11.5
			c-1.4-6-5.5-18.7-5.5-18.7L136.6,231.7z"/>
		<path class="st28" d="M130,233.6c0,0-2.7,20.2,0.8,37.8c0,0-3.3,2.9-6.1,0.1c0,0-1.1-16.1-2.8-26.1c-1.7-10-0.7-11.8-0.7-11.8
			L130,233.6L130,233.6z"/>
		<path class="st36" d="M121,235.5c3.5-2.2,13.3,0.2,15.1-2.5c2-2.9-1-7.1-0.2-10.7c0.7-3.6,4-13.3,1.1-14.5
			c-2.9-1.2-6.8,0.2-10.5,1.8c-3.8,1.7-5.9,5.8-5.5,10.1c0.4,4.3,0.5,6.8-0.3,10C119.8,233,120.6,235.8,121,235.5z"/>
		<path class="st22" d="M127.1,209.5c0.3-1.6,0.5-2.4,0-2.9c-0.5-0.4-0.8,0.1-1.2-1.4c-0.4-1.6-0.9-1.3-0.5-3.3c0.4-2,0.8-2.4,1-2.4
			c0.3,0,3.8,0.7,3.8,0.7s3.2,4.8,2.7,6.3c-0.5,1.5-0.3,1.7,0.6,1.9c0,0-0.5,1.1-1.9,1.4C128.6,210.2,127.1,209.5,127.1,209.5z"/>
		<path class="st23" d="M125.9,204c1.7-2.7,1.8-0.7,1,1.3c0,0,0.1,3.3,4.1,2.7c4-0.6,3.3-6.2,3.4-7.6c0.1-1.5-3.8-3.4-5.3-4.6
			c-1.6-1.2-4.5,0.2-4.2,2.2c0.3,2,1.1,3.4,0.8,4.8C125.5,204.2,125.9,204,125.9,204z"/>
		<path class="st37" d="M126.7,209.4C126.7,209.4,126.7,209.4,126.7,209.4c0.4,0,0.8,0.1,1.2,0.1c3.6,0.2,5.2-0.1,5.5-1.6
			c0.6,0.5,1.6,0.3,1.6,0.9c-0.1,1.6-2.6,2.7-6.3,2.4c-1.1-0.1-1.9-0.2-2.7-0.5C126.1,210.7,126.1,209.6,126.7,209.4z"/>
		<g>
			<path class="st37" d="M125.8,222.2L125.8,222.2c0.3-2.1,0.7-3.7,1.1-4.5c1.8-3.3-5.4-11-6,0c0,0-0.1,3.1-0.3,7
				C122.3,225.4,125.4,226.2,125.8,222.2z"/>
		</g>
		<polygon class="st38" points="110.8,217 106.9,206.6 119.5,199.4 123.3,209.7 		"/>
		<path class="st39" d="M110.8,217.1C110.8,217.1,110.8,217.1,110.8,217.1C110.8,217.1,110.8,217.1,110.8,217.1l-4-10.4
			c0,0,0-0.1,0-0.1l12.6-7.3c0,0,0,0,0,0c0,0,0,0,0,0l3.8,10.4c0,0,0,0.1,0,0.1L110.8,217.1C110.8,217.1,110.8,217.1,110.8,217.1z
			 M106.9,206.7l3.9,10.3l12.3-7.2l-3.7-10.3L106.9,206.7z"/>
		<polygon class="st37" points="111.4,215.8 108,206.9 118.9,200.6 122.1,209.5 		"/>
		<path class="st22" d="M113.5,218.2c-1.5-0.8-2.1-1.5-2-1.3s-0.8-0.3-0.7-0.4c0,0-0.8,0.2-0.3,1.1c0,0-0.4,0.5,0,0.7
			c0,0-0.3,0.4,0.2,0.7c0,0,0,0.5,0.4,0.7c0.4,0.2,2,0.8,2.7,0.8L113.5,218.2z"/>
		<path class="st37" d="M120.7,224.7c-5-2.2-6.9-3.7-6.9-3.7s-1.1-2.4,0.2-3.4l7,2.3L120.7,224.7z"/>
	</g>
	<g>
		<path class="st17" d="M51.8,124.6c0.5,2,0.3,1.4,0.8,2c0.5,0.6,1.3,0.7,2.2,2.7c0.9,2,6.6,0.3,4.6-1.8s-4.6-4.5-4.6-4.5
			L51.8,124.6z"/>
		<path class="st17" d="M61.9,118.8c0.2,2.1,0.2,1.5,0.6,2.1c0.4,0.6,1.2,0.9,1.8,3c0.7,2.1,6.5,1.1,4.7-1.2c-1.7-2.3-4-5-4-5
			L61.9,118.8z"/>
		<path class="st28" d="M64.7,85.5c0,0,2.1,6,2.1,11.6s-3,19.2-1.4,20.8c0,0-0.6,1.9-4,1.3c0,0-1-12.9-1.2-18.4
			c-0.2-5.5-0.2-5.5-0.2-5.5l0.3-6.1L64.7,85.5z"/>
		<path class="st40" d="M54,87.6c-3,7-0.2,10.4-1.7,18.4c-1.5,8-2.5,15.9-1,18.4c0,0,3.1,1.4,4-1.2c0,0-1.3-7,1.3-13.6
			c2.6-6.6,5.6-11.9,5.1-20.9L54,87.6z"/>
		<path class="st20" d="M59.9,65.3c-6.2,0.6-6.2,0.7-6.6,1.3s7.5,8.8,7.5,8.8L59.9,65.3z"/>
		<path class="st41" d="M51.6,71.5c0.1-1.1-0.8-1.7-0.9-2.2c1.3-1.2,2.4-2.8,3.1-3.1c0.9-0.4,6.2,4,6.2,4l-0.7-4.9
			c0,0,3.4,0.3,3.8,0.8c4.6,6.3,2,20.4,2,20.4s-2.8,5-11.1,1.8c0,0-0.3-8.1-4.2-11.5C50.6,75,51.5,72.9,51.6,71.5z"/>
		<path class="st42" d="M60.5,64.8c1,1.5,1,1.5,1,1.5s-1.2-0.2-1.6,0.4c-0.5,0.6-1.1-2.1-1.1-2.1L60.5,64.8z"/>
		<path class="st22" d="M54.3,63.9c3.2,3.8,6.6,3.7,6.4,0.6c-0.2-3.1,0.2-6-0.7-6.4l-5.6-0.2L52,60.7c0,0-0.5,2.1,1,3.1
			C54.3,64.6,54.3,63.9,54.3,63.9z"/>
		<path class="st23" d="M55.8,58.9c5,0.3,5.9-1.9,3.5-3.2c-2.4-1.3-8.4-0.7-8.3,3.4c0.1,4.2,2.1,4.8,2.1,4.8s-1.2-1.5-0.5-2.2
			c0.8-0.7,1.6,1.8,2.1,1.7c0.5-0.1-0.6-0.7,0-1.8s1.9-0.8,1.1-2.3c0,0-0.4-0.5-0.2-0.4C55.8,58.9,55.8,58.9,55.8,58.9z"/>
		<path class="st20" d="M53.8,66.1c1.1-1,0.3-1.9,0.3-1.9s-0.5,0.2-1.2-0.5c-0.7-0.7-0.8-2.5,0-2.3c0.8,0.3,1.1,1.5,1.6,2.5
			c0.4,1,2.6,2.3,2.9,2.5c0.4,0.1-2.6-0.1-2.6-0.1L53.8,66.1z"/>
		<path class="st42" d="M58.4,69.1l0.1-1.2c0,0-5-1.4-4.6-1.9c0.4-0.6,0.6-0.7-0.4-0.4s-1.7,1.6,0,2.3c1.7,0.8,4.9,1.7,4.9,1.7
			L58.4,69.1z"/>
		<path class="st42" d="M56.6,69.1c-3.4-1.5-1.8-1.6,0-1.4c1.6,1.2,3.3,2.6,3.3,2.6c2.2,5,1.7,18.8,1.7,18.8l0,0
			c-0.4,0.1-0.8,0.2-1.3,0.3C60.5,86.6,61.7,71.3,56.6,69.1z"/>
		<polygon class="st43" points="63,76.2 65.3,75.2 63.6,73.8 		"/>
		<path class="st44" d="M51.3,69.2c5.2,1.6,7.1,9.9,7.2,12.8c0,0,1.1-1.1,3-1.6l4,0.2c0,0-7.1,9.4-11,5.7s-4.9-9.3-4.9-9.3
			S49.1,68.5,51.3,69.2z"/>
		<path class="st22" d="M60.4,77.6c-1.5,0-4.4,0.7-4.4,1.1s-0.3,3.4,1.1,3.8c1.4,0.4,4.5-2.1,4.5-2.1s-1.2-1.8-1.2-2.3
			C60.4,77.6,60.4,77.6,60.4,77.6z"/>
		<path class="st44" d="M63.9,66.3C63.9,66.3,63.9,66.3,63.9,66.3c-0.2-0.2-0.4-0.3-0.5-0.4c-0.1-0.1-0.1-0.1-0.2-0.2l0,0
			c-1.4-1-2.5-0.6-2.5-0.6c2.3,2,1.9,7.4,2.3,8.1c0.4,0.7,2.3,2,2.3,2l0,0l0,0.2l-4.7,1.6c-1,1.9,0.9,3.5,0.9,3.5s3.2,1.2,7.2-1.1
			C72.6,77.1,69.1,70.8,63.9,66.3z"/>
		<path class="st20" d="M63,76.2l2.4-0.8c0,0-0.8-0.9-1.7-0.6C62.7,75.1,63,76.2,63,76.2z"/>
	</g>
	<g>
		<path class="st28" d="M7.5,167.2c0,0-2,0.9-2.8,0c0,0-0.6-0.1-0.8,0.5c-0.3,0.6,0.4,2,1.8,1.9c2.4-0.1,8.4-2.3,6.9-3.6
			c-1.6-1.3-5.1,0.5-5.1,0.5L7.5,167.2z"/>
		<path class="st45" d="M7.8,152.4c-0.1-0.2,0-0.2,0-0.3v-1.5l-3.2-1.8c0,0.9,0,1.8,0,2.7c-0.5-0.3-0.9-0.4-0.9,0c0.1,1,1,4.4,0.8,6
			c-0.2,1.6-0.7,4.1,0.3,9.5c0,0,1.7,2.1,2.8,0C7.9,158.2,8.3,154,7.8,152.4z"/>
		<path class="st45" d="M13.3,153.7c-0.1-0.2-0.1-0.2-0.1-0.3v-1.5l-3.2-1.8c0,0.9,0,1.8,0.1,2.7c-0.5-0.3-0.9-0.4-0.9,0
			c0.1,1,1,4.4,0.8,6c-0.2,1.6-0.7,4.1,0.3,9.5c0,0,1.7,2.1,2.8,0C13.4,159.5,13.8,155.3,13.3,153.7z"/>
		<path class="st28" d="M1,140c0,0-1.3,6.6-0.6,11.4c0.7,4.9,12.7,6.4,15.8,2.9c0,0,1-10.2-0.3-14.4s-3.4-4-3.4-4L1,140z"/>
		<path class="st46" d="M11.3,142.1l1.3-4.3l2,3.2c0,0,1.7-0.2,1.9-1.8c0.2-1.6-2.3-4.5-2.6-7.2c-0.3-2.6,1.9-3.8,1.2-6.1
			c-0.6-2.3-3-6.3-3-6.3s-6.7-0.2-7.5-1.4c-0.8-1.2-1.7-2.1-3.8,0.6s2.7,8.9,2,12.9c-0.7,4-2.7,5.5-2.1,7.5
			C0.8,139.2,1.4,143.1,11.3,142.1z"/>
		<path class="st28" d="M13,168.3c0,0-2,0.9-2.8,0c0,0-0.6-0.1-0.8,0.5s0.4,2,1.8,1.9c2.4-0.1,8.4-2.3,6.9-3.6
			c-1.6-1.3-5.1,0.5-5.1,0.5L13,168.3z"/>
		<path class="st45" d="M11.9,138.2c0.8,2.5-0.2,3,0.4,3.7c0.6,0.7,3.4,0.3,3-1.6c-0.3-1.9-0.9-2.7-0.9-2.7L11.9,138.2z"/>
		<path class="st22" d="M9.1,119.8c0,0-4.2,3.4-6.3,1.5s0.8-4,2.6-3.7L9.1,119.8z"/>
		<path class="st22" d="M9,119.8c-0.3-1.5-0.5-2.3,0-2.7c0.5-0.4,0.7,0.1,1.1-1.3s0.8-1.3,0.4-3.2c-0.4-1.9-0.7-2.3-1-2.3
			c-0.3,0-3.5,0.7-3.5,0.7s-3,4.5-2.5,6c0.5,1.5,0.3,1.6-0.6,1.8c0,0,0.5,1.1,1.7,1.3C7.6,120.5,9,119.8,9,119.8z"/>
		<path class="st23" d="M10.1,114.7c-1.6-2.5-1.7-0.6-1,1.2c0,0-0.1,3.1-3.9,2.6s-3.1-5.8-3.2-7.2c-0.1-1.4,0.4-2,1.9-3.1
			c1.5-1.1,7.5-1,7.2,0.9c-0.3,1.9-1,3.2-0.8,4.5C10.5,114.9,10.1,114.7,10.1,114.7z"/>
		<path class="st23" d="M6.5,107.5c-4.6,0-5.7,3.4-4.9,8.3c0.8,5-1.9,8.4,0.1,9.6c2,1.2,10.4-2.8,7.5-9.5"/>
		<path class="st47" d="M11.7,119.3c2.5-0.7,3.1,18.4,3.1,18.4s-2.5,1.4-3.4,0.2C10.5,136.7,9,127,9,127S8.2,120.4,11.7,119.3z"/>
	</g>
	<g>
		<g>
			<path class="st17" d="M78,108.6c0.4,2,0.3,1.4,0.8,2s1.3,0.7,2.2,2.7c0.9,2,6.5,0.3,4.5-1.7c-2-2-4.6-4.4-4.6-4.4L78,108.6z"/>
			<path class="st23" d="M77.4,42.4c-1.8,2.7,2.1,9.9,1.8,10.4c-0.3,0.5,2.8-3,2.8-3l-1.3-7.5H77.4z"/>
			<path class="st17" d="M88.1,102.8c0.2,2,0.2,1.5,0.6,2.1c0.4,0.6,1.2,0.9,1.8,3c0.7,2.1,6.4,1.1,4.7-1.2c-1.7-2.3-4-5-4-5
				L88.1,102.8z"/>
			<path class="st28" d="M90.9,69.8c0,0,2.1,5.9,2.1,11.5c0,5.6-2.9,19-1.4,20.6c0,0-0.6,1.9-4,1.3c0,0-1-12.8-1.2-18.3
				s-0.2-5.4-0.2-5.4l0.3-6.1L90.9,69.8z"/>
			<path class="st40" d="M80.2,71.9c-3,7-0.2,10.3-1.7,18.2c-1.5,7.9-2.5,15.8-1,18.2c0,0,3.1,1.4,4-1.2c0,0-1.3-6.9,1.3-13.5
				S88.4,81.9,88,73L80.2,71.9z"/>
			<path class="st20" d="M86.1,49.7c-6.1,0.6-6.2,0.7-6.6,1.3s7.5,8.7,7.5,8.7L86.1,49.7z"/>
			<path class="st48" d="M77.8,55.9c0.1-1.1-0.8-1.7-0.9-2.2c1.3-1.2,2.4-2.8,3-3.1c0.9-0.4,6.1,4,6.1,4l-0.7-4.8
				c0,0,3.4,0.3,3.8,0.8c4.6,6.2,2,20.2,2,20.2s-2.8,5-11,1.8c0,0-0.3-8.1-4.2-11.4C76.9,59.4,77.8,57.3,77.8,55.9z"/>
			<path class="st49" d="M86.7,49.3c1,1.5,1,1.5,1,1.5s-1.1-0.2-1.6,0.4c-0.5,0.6-1-2.1-1-2.1L86.7,49.3z"/>
			<path class="st22" d="M80.6,48.4c3.1,3.8,6.5,3.7,6.3,0.6c-0.2-3.1,0.2-5.9-0.7-6.3l-5.5-0.2l-2.4,2.7c0,0-0.5,2.1,1,3.1
				C80.5,49.1,80.6,48.4,80.6,48.4z"/>
			<path class="st23" d="M82,43.4c4.9,0.3,5.8-1.8,3.4-3.2c-2.4-1.3-8.3-0.7-8.2,3.4s2,4.7,2,4.7s-1.2-1.5-0.5-2.2
				c0.7-0.7,1.6,1.8,2,1.6s-0.5-0.7,0-1.8c0.5-1.1,1.9-0.8,1.1-2.2c0,0-0.4-0.5-0.2-0.4C82,43.4,82,43.4,82,43.4z"/>
			<path class="st20" d="M80.1,50.6c1.1-1,0.3-1.9,0.3-1.9s-0.5,0.2-1.2-0.5c-0.7-0.7-0.8-2.5,0-2.2c0.8,0.3,1.1,1.5,1.6,2.5
				s2.6,2.3,2.9,2.5C84,51,81,50.7,81,50.7L80.1,50.6z"/>
			<path class="st49" d="M84.6,53.5l0.1-1.2c0,0-4.9-1.4-4.6-1.9s0.6-0.7-0.4-0.4c-1,0.3-1.7,1.6,0,2.3c1.7,0.8,4.8,1.7,4.8,1.7
				L84.6,53.5z"/>
			<path class="st49" d="M82.8,53.5c-3.4-1.5-1.8-1.6,0-1.4c1.6,1.2,3.3,2.6,3.3,2.6c2.2,4.9,1.6,18.7,1.6,18.7l0,0
				c-0.4,0.1-0.8,0.2-1.3,0.3C86.7,70.8,87.8,55.7,82.8,53.5z"/>
			<path class="st49" d="M77.6,53.6c5.2,1.6,7.1,9.8,7.2,12.7c0,0,1.1-1,3-1.6l3.9,0.2c0,0-7,9.3-10.9,5.6c-3.9-3.7-4.9-9.2-4.9-9.2
				S75.4,52.9,77.6,53.6z"/>
			<path class="st22" d="M87,62c-0.9,0-2.7,0.6-2.7,1c0,0.4-0.2,3.1,0.6,3.4c0.9,0.3,2.8-1.9,2.8-1.9S87,62.9,87,62.4
				C87,62,87,62,87,62z"/>
			<path class="st49" d="M90,50.7C90,50.7,90,50.7,90,50.7c-0.2-0.2-0.3-0.3-0.5-0.4c-0.1-0.1-0.1-0.1-0.2-0.2l0,0
				c-1.4-1-2.4-0.6-2.4-0.6c2.3,2,1.9,7.3,2.3,8c0.4,0.7,2.3,1.9,2.3,1.9l0,0l0,0.2l-4.7,1.6c-1,1.9,0.9,3.4,0.9,3.4
				s3.2,1.2,7.1-1.1C98.7,61.5,95.2,55.1,90,50.7z"/>
			<path class="st20" d="M89.2,60.5l2.3-0.8c0,0-0.8-0.9-1.7-0.6C88.9,59.4,89.2,60.5,89.2,60.5z"/>
		</g>
		<path class="st23" d="M80.8,47.3c2.1,2.5,3.7,2.5,3.9,1.9c0.2-0.6,0.1-0.5,0.8-0.8c0.7-0.4,1.3-0.7,1.5-0.3c0.2,0.5,0.4,4-2,3.4
			c-2.4-0.6-4-1.9-4.9-4.5C79.2,44.5,80.8,47.3,80.8,47.3z"/>
		<path class="st17" d="M79.9,71.5c0,0,6.6,3.6,11.5-1.8l0.2,1.8c0,0-3.8,5-11.6,1.4V71.5z"/>
	</g>
</g>
</svg>
